<?xml version="1.0" encoding="utf-8"?>
<!-- Generator: Adobe Illustrator 15.1.0, SVG Export Plug-In . SVG Version: 6.00 Build 0)  -->
<!DOCTYPE svg PUBLIC "-//W3C//DTD SVG 1.1//EN" "http://www.w3.org/Graphics/SVG/1.1/DTD/svg11.dtd">
<svg version="1.1" id="Layer_1" xmlns="http://www.w3.org/2000/svg" xmlns:xlink="http://www.w3.org/1999/xlink" x="0px" y="0px"
	 width="24px" height="24px" viewBox="0 0 24 24" enable-background="new 0 0 24 24" xml:space="preserve">
<path fill="#070909" d="M16.956,7.738L16.95,7.715L12,0.719L7.063,7.695L7.05,7.715L4.483,18.731L12,23.281l7.517-4.55L16.956,7.738
	z M13.314,18.548h-2.628L8.63,12.015L12,6.211l3.37,5.804L13.314,18.548z M15.537,12.304l3.625,6.244h-5.59L15.537,12.304z
	 M13.237,18.794L12,22.726l-1.237-3.931H13.237z M10.427,18.548h-5.59l3.625-6.244L10.427,18.548z M12.124,5.932V1.32L16.7,7.788
	l-1.23,3.908L12.124,5.932z M11.876,5.932L8.53,11.696L7.3,7.788l4.576-6.468V5.932z M8.363,11.985L4.93,17.896l2.252-9.662
	L8.363,11.985z M10.505,18.794l1.279,4.068l-6.719-4.068H10.505z M13.495,18.794h5.44l-6.719,4.068L13.495,18.794z M19.07,17.896
	l-3.433-5.911l1.181-3.751L19.07,17.896z"/>
</svg>
